<mxfile host="www.draw.io" modified="2020-02-18T17:25:47.624Z" agent="Mozilla/5.0 (Windows NT 6.3; Win64; x64) AppleWebKit/537.36 (KHTML, like Gecko) Chrome/79.0.3945.130 Safari/537.36" etag="qrYxxGvsT2hhUm0krXZ4" version="12.7.1" type="github">
  <diagram id="MCP9dUsLfelmGqhKOad_" name="Page-1">
    <mxGraphModel dx="1422" dy="794" grid="1" gridSize="10" guides="1" tooltips="1" connect="1" arrows="1" fold="1" page="1" pageScale="1" pageWidth="850" pageHeight="1100" math="0" shadow="0">
      <root>
        <mxCell id="0" />
        <mxCell id="1" parent="0" />
        <mxCell id="qhDPiZQqjXj1k8pIYTXS-12" value="Table" style="swimlane;fontStyle=0;childLayout=stackLayout;horizontal=1;startSize=26;fillColor=#e0e0e0;horizontalStack=0;resizeParent=1;resizeParentMax=0;resizeLast=0;collapsible=1;marginBottom=0;swimlaneFillColor=#ffffff;align=center;fontSize=14;" vertex="1" parent="1">
          <mxGeometry x="180" y="50" width="160" height="194" as="geometry" />
        </mxCell>
        <mxCell id="qhDPiZQqjXj1k8pIYTXS-13" value="Customer" style="shape=partialRectangle;top=0;left=0;right=0;bottom=1;align=left;verticalAlign=middle;fillColor=none;spacingLeft=34;spacingRight=4;overflow=hidden;rotatable=0;points=[[0,0.5],[1,0.5]];portConstraint=eastwest;dropTarget=0;fontStyle=5;fontSize=12;" vertex="1" parent="qhDPiZQqjXj1k8pIYTXS-12">
          <mxGeometry y="26" width="160" height="30" as="geometry" />
        </mxCell>
        <mxCell id="qhDPiZQqjXj1k8pIYTXS-14" value="PK" style="shape=partialRectangle;top=0;left=0;bottom=0;fillColor=none;align=left;verticalAlign=middle;spacingLeft=4;spacingRight=4;overflow=hidden;rotatable=0;points=[];portConstraint=eastwest;part=1;fontSize=12;" vertex="1" connectable="0" parent="qhDPiZQqjXj1k8pIYTXS-13">
          <mxGeometry width="30" height="30" as="geometry" />
        </mxCell>
        <mxCell id="qhDPiZQqjXj1k8pIYTXS-15" value="CustomerId" style="shape=partialRectangle;top=0;left=0;right=0;bottom=0;align=left;verticalAlign=top;fillColor=none;spacingLeft=34;spacingRight=4;overflow=hidden;rotatable=0;points=[[0,0.5],[1,0.5]];portConstraint=eastwest;dropTarget=0;fontSize=12;" vertex="1" parent="qhDPiZQqjXj1k8pIYTXS-12">
          <mxGeometry y="56" width="160" height="26" as="geometry" />
        </mxCell>
        <mxCell id="qhDPiZQqjXj1k8pIYTXS-16" value="" style="shape=partialRectangle;top=0;left=0;bottom=0;fillColor=none;align=left;verticalAlign=top;spacingLeft=4;spacingRight=4;overflow=hidden;rotatable=0;points=[];portConstraint=eastwest;part=1;fontSize=12;" vertex="1" connectable="0" parent="qhDPiZQqjXj1k8pIYTXS-15">
          <mxGeometry width="30" height="26" as="geometry" />
        </mxCell>
        <mxCell id="qhDPiZQqjXj1k8pIYTXS-17" value="Name" style="shape=partialRectangle;top=0;left=0;right=0;bottom=0;align=left;verticalAlign=top;fillColor=none;spacingLeft=34;spacingRight=4;overflow=hidden;rotatable=0;points=[[0,0.5],[1,0.5]];portConstraint=eastwest;dropTarget=0;fontSize=12;" vertex="1" parent="qhDPiZQqjXj1k8pIYTXS-12">
          <mxGeometry y="82" width="160" height="26" as="geometry" />
        </mxCell>
        <mxCell id="qhDPiZQqjXj1k8pIYTXS-18" value="" style="shape=partialRectangle;top=0;left=0;bottom=0;fillColor=none;align=left;verticalAlign=top;spacingLeft=4;spacingRight=4;overflow=hidden;rotatable=0;points=[];portConstraint=eastwest;part=1;fontSize=12;" vertex="1" connectable="0" parent="qhDPiZQqjXj1k8pIYTXS-17">
          <mxGeometry width="30" height="26" as="geometry" />
        </mxCell>
        <mxCell id="qhDPiZQqjXj1k8pIYTXS-19" value="Phone NO" style="shape=partialRectangle;top=0;left=0;right=0;bottom=0;align=left;verticalAlign=top;fillColor=none;spacingLeft=34;spacingRight=4;overflow=hidden;rotatable=0;points=[[0,0.5],[1,0.5]];portConstraint=eastwest;dropTarget=0;fontSize=12;" vertex="1" parent="qhDPiZQqjXj1k8pIYTXS-12">
          <mxGeometry y="108" width="160" height="26" as="geometry" />
        </mxCell>
        <mxCell id="qhDPiZQqjXj1k8pIYTXS-20" value="" style="shape=partialRectangle;top=0;left=0;bottom=0;fillColor=none;align=left;verticalAlign=top;spacingLeft=4;spacingRight=4;overflow=hidden;rotatable=0;points=[];portConstraint=eastwest;part=1;fontSize=12;" vertex="1" connectable="0" parent="qhDPiZQqjXj1k8pIYTXS-19">
          <mxGeometry width="30" height="26" as="geometry" />
        </mxCell>
        <mxCell id="qhDPiZQqjXj1k8pIYTXS-21" value="Address&#xa;&#xa;Country" style="shape=partialRectangle;top=0;left=0;right=0;bottom=0;align=left;verticalAlign=top;fillColor=none;spacingLeft=34;spacingRight=4;overflow=hidden;rotatable=0;points=[[0,0.5],[1,0.5]];portConstraint=eastwest;dropTarget=0;fontSize=12;" vertex="1" parent="qhDPiZQqjXj1k8pIYTXS-12">
          <mxGeometry y="134" width="160" height="60" as="geometry" />
        </mxCell>
        <mxCell id="qhDPiZQqjXj1k8pIYTXS-22" value="" style="shape=partialRectangle;top=0;left=0;bottom=0;fillColor=none;align=left;verticalAlign=top;spacingLeft=4;spacingRight=4;overflow=hidden;rotatable=0;points=[];portConstraint=eastwest;part=1;fontSize=12;" vertex="1" connectable="0" parent="qhDPiZQqjXj1k8pIYTXS-21">
          <mxGeometry width="30" height="60" as="geometry" />
        </mxCell>
        <mxCell id="qhDPiZQqjXj1k8pIYTXS-37" style="edgeStyle=orthogonalEdgeStyle;rounded=0;orthogonalLoop=1;jettySize=auto;html=1;" edge="1" parent="1" source="qhDPiZQqjXj1k8pIYTXS-21">
          <mxGeometry relative="1" as="geometry">
            <mxPoint x="540" y="214" as="targetPoint" />
          </mxGeometry>
        </mxCell>
        <mxCell id="qhDPiZQqjXj1k8pIYTXS-40" value="Table" style="swimlane;fontStyle=0;childLayout=stackLayout;horizontal=1;startSize=26;fillColor=#e0e0e0;horizontalStack=0;resizeParent=1;resizeParentMax=0;resizeLast=0;collapsible=1;marginBottom=0;swimlaneFillColor=#ffffff;align=center;fontSize=14;" vertex="1" parent="1">
          <mxGeometry x="540" y="50" width="160" height="230" as="geometry" />
        </mxCell>
        <mxCell id="qhDPiZQqjXj1k8pIYTXS-41" value="Order" style="shape=partialRectangle;top=0;left=0;right=0;bottom=1;align=left;verticalAlign=middle;fillColor=none;spacingLeft=34;spacingRight=4;overflow=hidden;rotatable=0;points=[[0,0.5],[1,0.5]];portConstraint=eastwest;dropTarget=0;fontStyle=5;fontSize=12;" vertex="1" parent="qhDPiZQqjXj1k8pIYTXS-40">
          <mxGeometry y="26" width="160" height="30" as="geometry" />
        </mxCell>
        <mxCell id="qhDPiZQqjXj1k8pIYTXS-42" value="PK" style="shape=partialRectangle;top=0;left=0;bottom=0;fillColor=none;align=left;verticalAlign=middle;spacingLeft=4;spacingRight=4;overflow=hidden;rotatable=0;points=[];portConstraint=eastwest;part=1;fontSize=12;" vertex="1" connectable="0" parent="qhDPiZQqjXj1k8pIYTXS-41">
          <mxGeometry width="30" height="30" as="geometry" />
        </mxCell>
        <mxCell id="qhDPiZQqjXj1k8pIYTXS-43" value="OrderID&#xa;" style="shape=partialRectangle;top=0;left=0;right=0;bottom=0;align=left;verticalAlign=top;fillColor=none;spacingLeft=34;spacingRight=4;overflow=hidden;rotatable=0;points=[[0,0.5],[1,0.5]];portConstraint=eastwest;dropTarget=0;fontSize=12;" vertex="1" parent="qhDPiZQqjXj1k8pIYTXS-40">
          <mxGeometry y="56" width="160" height="26" as="geometry" />
        </mxCell>
        <mxCell id="qhDPiZQqjXj1k8pIYTXS-44" value="" style="shape=partialRectangle;top=0;left=0;bottom=0;fillColor=none;align=left;verticalAlign=top;spacingLeft=4;spacingRight=4;overflow=hidden;rotatable=0;points=[];portConstraint=eastwest;part=1;fontSize=12;" vertex="1" connectable="0" parent="qhDPiZQqjXj1k8pIYTXS-43">
          <mxGeometry width="30" height="26" as="geometry" />
        </mxCell>
        <mxCell id="qhDPiZQqjXj1k8pIYTXS-45" value="Date" style="shape=partialRectangle;top=0;left=0;right=0;bottom=0;align=left;verticalAlign=top;fillColor=none;spacingLeft=34;spacingRight=4;overflow=hidden;rotatable=0;points=[[0,0.5],[1,0.5]];portConstraint=eastwest;dropTarget=0;fontSize=12;" vertex="1" parent="qhDPiZQqjXj1k8pIYTXS-40">
          <mxGeometry y="82" width="160" height="26" as="geometry" />
        </mxCell>
        <mxCell id="qhDPiZQqjXj1k8pIYTXS-46" value="" style="shape=partialRectangle;top=0;left=0;bottom=0;fillColor=none;align=left;verticalAlign=top;spacingLeft=4;spacingRight=4;overflow=hidden;rotatable=0;points=[];portConstraint=eastwest;part=1;fontSize=12;" vertex="1" connectable="0" parent="qhDPiZQqjXj1k8pIYTXS-45">
          <mxGeometry width="30" height="26" as="geometry" />
        </mxCell>
        <mxCell id="qhDPiZQqjXj1k8pIYTXS-47" value="Product1" style="shape=partialRectangle;top=0;left=0;right=0;bottom=0;align=left;verticalAlign=top;fillColor=none;spacingLeft=34;spacingRight=4;overflow=hidden;rotatable=0;points=[[0,0.5],[1,0.5]];portConstraint=eastwest;dropTarget=0;fontSize=12;" vertex="1" parent="qhDPiZQqjXj1k8pIYTXS-40">
          <mxGeometry y="108" width="160" height="26" as="geometry" />
        </mxCell>
        <mxCell id="qhDPiZQqjXj1k8pIYTXS-48" value="" style="shape=partialRectangle;top=0;left=0;bottom=0;fillColor=none;align=left;verticalAlign=top;spacingLeft=4;spacingRight=4;overflow=hidden;rotatable=0;points=[];portConstraint=eastwest;part=1;fontSize=12;" vertex="1" connectable="0" parent="qhDPiZQqjXj1k8pIYTXS-47">
          <mxGeometry width="30" height="26" as="geometry" />
        </mxCell>
        <mxCell id="qhDPiZQqjXj1k8pIYTXS-51" value="Product2" style="shape=partialRectangle;top=0;left=0;right=0;bottom=0;align=left;verticalAlign=top;fillColor=none;spacingLeft=34;spacingRight=4;overflow=hidden;rotatable=0;points=[[0,0.5],[1,0.5]];portConstraint=eastwest;dropTarget=0;fontSize=12;" vertex="1" parent="qhDPiZQqjXj1k8pIYTXS-40">
          <mxGeometry y="134" width="160" height="30" as="geometry" />
        </mxCell>
        <mxCell id="qhDPiZQqjXj1k8pIYTXS-52" value="" style="shape=partialRectangle;top=0;left=0;bottom=0;fillColor=none;align=left;verticalAlign=top;spacingLeft=4;spacingRight=4;overflow=hidden;rotatable=0;points=[];portConstraint=eastwest;part=1;fontSize=12;" vertex="1" connectable="0" parent="qhDPiZQqjXj1k8pIYTXS-51">
          <mxGeometry width="30" height="30" as="geometry" />
        </mxCell>
        <mxCell id="qhDPiZQqjXj1k8pIYTXS-49" value="Product3" style="shape=partialRectangle;top=0;left=0;right=0;bottom=0;align=left;verticalAlign=top;fillColor=none;spacingLeft=34;spacingRight=4;overflow=hidden;rotatable=0;points=[[0,0.5],[1,0.5]];portConstraint=eastwest;dropTarget=0;fontSize=12;" vertex="1" parent="qhDPiZQqjXj1k8pIYTXS-40">
          <mxGeometry y="164" width="160" height="36" as="geometry" />
        </mxCell>
        <mxCell id="qhDPiZQqjXj1k8pIYTXS-50" value="" style="shape=partialRectangle;top=0;left=0;bottom=0;fillColor=none;align=left;verticalAlign=top;spacingLeft=4;spacingRight=4;overflow=hidden;rotatable=0;points=[];portConstraint=eastwest;part=1;fontSize=12;" vertex="1" connectable="0" parent="qhDPiZQqjXj1k8pIYTXS-49">
          <mxGeometry width="30" height="36" as="geometry" />
        </mxCell>
        <mxCell id="qhDPiZQqjXj1k8pIYTXS-53" value="" style="shape=partialRectangle;top=0;left=0;right=0;bottom=0;align=left;verticalAlign=top;fillColor=none;spacingLeft=34;spacingRight=4;overflow=hidden;rotatable=0;points=[[0,0.5],[1,0.5]];portConstraint=eastwest;dropTarget=0;fontSize=12;" vertex="1" parent="qhDPiZQqjXj1k8pIYTXS-40">
          <mxGeometry y="200" width="160" height="30" as="geometry" />
        </mxCell>
        <mxCell id="qhDPiZQqjXj1k8pIYTXS-54" value="" style="shape=partialRectangle;top=0;left=0;bottom=0;fillColor=none;align=left;verticalAlign=top;spacingLeft=4;spacingRight=4;overflow=hidden;rotatable=0;points=[];portConstraint=eastwest;part=1;fontSize=12;" vertex="1" connectable="0" parent="qhDPiZQqjXj1k8pIYTXS-53">
          <mxGeometry width="30" height="30" as="geometry" />
        </mxCell>
        <mxCell id="qhDPiZQqjXj1k8pIYTXS-102" value="" style="edgeStyle=orthogonalEdgeStyle;rounded=0;orthogonalLoop=1;jettySize=auto;html=1;" edge="1" parent="1" source="qhDPiZQqjXj1k8pIYTXS-55" target="qhDPiZQqjXj1k8pIYTXS-53">
          <mxGeometry relative="1" as="geometry" />
        </mxCell>
        <mxCell id="qhDPiZQqjXj1k8pIYTXS-55" value="Table" style="swimlane;fontStyle=0;childLayout=stackLayout;horizontal=1;startSize=26;fillColor=#e0e0e0;horizontalStack=0;resizeParent=1;resizeParentMax=0;resizeLast=0;collapsible=1;marginBottom=0;swimlaneFillColor=#ffffff;align=center;fontSize=14;" vertex="1" parent="1">
          <mxGeometry x="540" y="460" width="160" height="144" as="geometry" />
        </mxCell>
        <mxCell id="qhDPiZQqjXj1k8pIYTXS-56" value="Product" style="shape=partialRectangle;top=0;left=0;right=0;bottom=1;align=left;verticalAlign=middle;fillColor=none;spacingLeft=34;spacingRight=4;overflow=hidden;rotatable=0;points=[[0,0.5],[1,0.5]];portConstraint=eastwest;dropTarget=0;fontStyle=5;fontSize=12;" vertex="1" parent="qhDPiZQqjXj1k8pIYTXS-55">
          <mxGeometry y="26" width="160" height="30" as="geometry" />
        </mxCell>
        <mxCell id="qhDPiZQqjXj1k8pIYTXS-57" value="PK" style="shape=partialRectangle;top=0;left=0;bottom=0;fillColor=none;align=left;verticalAlign=middle;spacingLeft=4;spacingRight=4;overflow=hidden;rotatable=0;points=[];portConstraint=eastwest;part=1;fontSize=12;" vertex="1" connectable="0" parent="qhDPiZQqjXj1k8pIYTXS-56">
          <mxGeometry width="30" height="30" as="geometry" />
        </mxCell>
        <mxCell id="qhDPiZQqjXj1k8pIYTXS-58" value="ProductId" style="shape=partialRectangle;top=0;left=0;right=0;bottom=0;align=left;verticalAlign=top;fillColor=none;spacingLeft=34;spacingRight=4;overflow=hidden;rotatable=0;points=[[0,0.5],[1,0.5]];portConstraint=eastwest;dropTarget=0;fontSize=12;" vertex="1" parent="qhDPiZQqjXj1k8pIYTXS-55">
          <mxGeometry y="56" width="160" height="26" as="geometry" />
        </mxCell>
        <mxCell id="qhDPiZQqjXj1k8pIYTXS-59" value="" style="shape=partialRectangle;top=0;left=0;bottom=0;fillColor=none;align=left;verticalAlign=top;spacingLeft=4;spacingRight=4;overflow=hidden;rotatable=0;points=[];portConstraint=eastwest;part=1;fontSize=12;" vertex="1" connectable="0" parent="qhDPiZQqjXj1k8pIYTXS-58">
          <mxGeometry width="30" height="26" as="geometry" />
        </mxCell>
        <mxCell id="qhDPiZQqjXj1k8pIYTXS-60" value="Price" style="shape=partialRectangle;top=0;left=0;right=0;bottom=0;align=left;verticalAlign=top;fillColor=none;spacingLeft=34;spacingRight=4;overflow=hidden;rotatable=0;points=[[0,0.5],[1,0.5]];portConstraint=eastwest;dropTarget=0;fontSize=12;" vertex="1" parent="qhDPiZQqjXj1k8pIYTXS-55">
          <mxGeometry y="82" width="160" height="26" as="geometry" />
        </mxCell>
        <mxCell id="qhDPiZQqjXj1k8pIYTXS-61" value="" style="shape=partialRectangle;top=0;left=0;bottom=0;fillColor=none;align=left;verticalAlign=top;spacingLeft=4;spacingRight=4;overflow=hidden;rotatable=0;points=[];portConstraint=eastwest;part=1;fontSize=12;" vertex="1" connectable="0" parent="qhDPiZQqjXj1k8pIYTXS-60">
          <mxGeometry width="30" height="26" as="geometry" />
        </mxCell>
        <mxCell id="qhDPiZQqjXj1k8pIYTXS-62" value="Description" style="shape=partialRectangle;top=0;left=0;right=0;bottom=0;align=left;verticalAlign=top;fillColor=none;spacingLeft=34;spacingRight=4;overflow=hidden;rotatable=0;points=[[0,0.5],[1,0.5]];portConstraint=eastwest;dropTarget=0;fontSize=12;" vertex="1" parent="qhDPiZQqjXj1k8pIYTXS-55">
          <mxGeometry y="108" width="160" height="26" as="geometry" />
        </mxCell>
        <mxCell id="qhDPiZQqjXj1k8pIYTXS-63" value="" style="shape=partialRectangle;top=0;left=0;bottom=0;fillColor=none;align=left;verticalAlign=top;spacingLeft=4;spacingRight=4;overflow=hidden;rotatable=0;points=[];portConstraint=eastwest;part=1;fontSize=12;" vertex="1" connectable="0" parent="qhDPiZQqjXj1k8pIYTXS-62">
          <mxGeometry width="30" height="26" as="geometry" />
        </mxCell>
        <mxCell id="qhDPiZQqjXj1k8pIYTXS-64" value="" style="shape=partialRectangle;top=0;left=0;right=0;bottom=0;align=left;verticalAlign=top;fillColor=none;spacingLeft=34;spacingRight=4;overflow=hidden;rotatable=0;points=[[0,0.5],[1,0.5]];portConstraint=eastwest;dropTarget=0;fontSize=12;" vertex="1" parent="qhDPiZQqjXj1k8pIYTXS-55">
          <mxGeometry y="134" width="160" height="10" as="geometry" />
        </mxCell>
        <mxCell id="qhDPiZQqjXj1k8pIYTXS-65" value="" style="shape=partialRectangle;top=0;left=0;bottom=0;fillColor=none;align=left;verticalAlign=top;spacingLeft=4;spacingRight=4;overflow=hidden;rotatable=0;points=[];portConstraint=eastwest;part=1;fontSize=12;" vertex="1" connectable="0" parent="qhDPiZQqjXj1k8pIYTXS-64">
          <mxGeometry width="30" height="10" as="geometry" />
        </mxCell>
      </root>
    </mxGraphModel>
  </diagram>
</mxfile>
